<svg width="42" height="50" viewBox="0 0 42 50" fill="none" xmlns="http://www.w3.org/2000/svg">
<path d="M39.4101 1.6667H36.9101V0.833301C36.9101 0.373047 36.537 0 36.0768 0C35.6165 0 35.2435 0.373047 35.2435 0.833301V1.6666H25.2435V0.833301C25.2435 0.373047 24.8704 0 24.4102 0C23.9499 0 23.5769 0.373047 23.5769 0.833301V1.6666H13.5769V0.833301C13.5769 0.373047 13.2038 0 12.7436 0C12.2833 0 11.9103 0.373047 11.9103 0.833301V1.6666H9.41026C8.03018 1.66807 6.91172 2.78652 6.91026 4.1666V20C6.91026 20.4603 7.28331 20.8333 7.74356 20.8333C8.20381 20.8333 8.57686 20.4602 8.57686 20V4.1667C8.57745 3.70674 8.9502 3.33398 9.41016 3.3334H11.9102V5.15361C10.7622 5.55947 10.0736 6.7333 10.2795 7.9334C10.4854 9.1335 11.5259 10.0106 12.7435 10.0106C13.961 10.0106 15.0016 9.1335 15.2074 7.9334C15.4133 6.7333 14.7247 5.55947 13.5768 5.15361V3.3333H23.5768V5.15352C22.4288 5.55937 21.7402 6.7332 21.9461 7.9333C22.152 9.1334 23.1925 10.0105 24.4101 10.0105C25.6276 10.0105 26.6682 9.1334 26.874 7.9333C27.0799 6.7332 26.3913 5.55937 25.2434 5.15352V3.3333H35.2434V5.15352C34.0954 5.55937 33.4068 6.7332 33.6127 7.9333C33.8186 9.1334 34.8591 10.0105 36.0767 10.0105C37.2942 10.0105 38.3348 9.1334 38.5406 7.9333C38.7465 6.7332 38.0579 5.55937 36.91 5.15352V3.3333H39.41C39.8699 3.33389 40.2427 3.70664 40.2433 4.1666V47.5C40.2427 47.96 39.8699 48.3327 39.41 48.3333H9.40997C8.95001 48.3327 8.57725 47.96 8.57667 47.5V35.8333C8.57667 35.373 8.20362 35 7.74337 35C7.28311 35 6.91006 35.373 6.91006 35.8333V47.5C6.91153 48.8801 8.02999 49.9985 9.41006 50H39.4101C40.7901 49.9985 41.9086 48.8801 41.9101 47.5V4.1667C41.9086 2.78662 40.7901 1.66816 39.4101 1.6667ZM12.7434 8.3333C12.2831 8.3333 11.9101 7.96025 11.9101 7.5C11.9101 7.03975 12.2831 6.6667 12.7434 6.6667C13.2036 6.6667 13.5767 7.03975 13.5767 7.5C13.5762 7.95996 13.2034 8.33272 12.7434 8.3333ZM24.4101 8.3333C23.9498 8.3333 23.5768 7.96025 23.5768 7.5C23.5768 7.03975 23.9498 6.6667 24.4101 6.6667C24.8703 6.6667 25.2434 7.03975 25.2434 7.5C25.2428 7.95996 24.87 8.33272 24.4101 8.3333ZM36.0768 8.3333C35.6165 8.3333 35.2435 7.96025 35.2435 7.5C35.2435 7.03975 35.6165 6.6667 36.0768 6.6667C36.537 6.6667 36.9101 7.03975 36.9101 7.5C36.9095 7.95996 36.5367 8.33272 36.0768 8.3333Z" fill="#77828C"/>
<path d="M12.7434 17.5C12.7629 17.5 12.7828 17.4991 12.8023 17.4979C13.0433 17.4808 13.2649 17.3599 13.4099 17.1667L15.9099 13.8334C16.0886 13.5953 16.1266 13.2799 16.0097 13.0061C15.8928 12.7323 15.6387 12.5417 15.3432 12.506C15.0476 12.4704 14.7555 12.5951 14.5768 12.8332L12.653 15.3979L11.6658 14.4108C11.3395 14.0904 10.8161 14.0928 10.4928 14.4161C10.1694 14.7393 10.1671 15.2628 10.4875 15.5891L12.1542 17.2558C12.3103 17.4122 12.5224 17.5001 12.7434 17.5Z" fill="#77828C"/>
<path d="M10.4876 24.7559L12.1543 26.4226C12.3104 26.579 12.5224 26.6668 12.7434 26.6667C12.7629 26.6667 12.7829 26.6659 12.8024 26.6647C13.0433 26.6476 13.265 26.5267 13.4099 26.3334L15.9099 23.0001C16.1861 22.6321 16.1116 22.1097 15.7435 21.8335C15.3755 21.5574 14.8531 21.6319 14.5769 21.9999L12.6531 24.5647L11.6659 23.5776C11.3396 23.2572 10.8162 23.2596 10.4928 23.5828C10.1695 23.9062 10.1671 24.4296 10.4876 24.7559Z" fill="#77828C"/>
<path d="M18.5767 16.6666H37.7434C38.2037 16.6666 38.5767 16.2936 38.5767 15.8333C38.5767 15.373 38.2037 15 37.7434 15H18.5767C18.1165 15 17.7434 15.373 17.7434 15.8333C17.7434 16.2936 18.1165 16.6666 18.5767 16.6666Z" fill="#77828C"/>
<path d="M18.5767 25.8334H37.7434C38.2037 25.8334 38.5767 25.4603 38.5767 25.0001C38.5767 24.5398 38.2037 24.1667 37.7434 24.1667H18.5767C18.1165 24.1667 17.7434 24.5398 17.7434 25.0001C17.7434 25.4603 18.1165 25.8334 18.5767 25.8334Z" fill="#77828C"/>
<path d="M18.5767 35.0001H37.7434C38.2037 35.0001 38.5767 34.627 38.5767 34.1668C38.5767 33.7065 38.2037 33.3335 37.7434 33.3335H18.5767C18.1165 33.3335 17.7434 33.7065 17.7434 34.1668C17.7434 34.627 18.1165 35.0001 18.5767 35.0001Z" fill="#77828C"/>
<path d="M18.5767 44.1668H37.7434C38.2037 44.1668 38.5767 43.7938 38.5767 43.3335C38.5767 42.8733 38.2037 42.5002 37.7434 42.5002H18.5767C18.1165 42.5002 17.7434 42.8733 17.7434 43.3335C17.7434 43.7938 18.1165 44.1668 18.5767 44.1668Z" fill="#77828C"/>
<path d="M12.3793 34.1475L12.9876 34.7558C13.1975 34.9687 13.5055 35.0528 13.7946 34.976C14.0837 34.8992 14.3094 34.6736 14.3861 34.3845C14.4629 34.0954 14.3788 33.7874 14.1659 33.5775L13.5729 32.9845C13.556 31.3683 12.9393 29.8159 11.8426 28.6287L4.60301 20.7857C4.15721 20.3039 3.54402 20.011 2.88914 19.9669C2.84051 19.9632 2.79392 19.9505 2.7447 19.9495H2.74431C2.21931 19.9455 1.70447 20.0948 1.26306 20.3789C1.1157 20.4752 0.978787 20.5865 0.854275 20.7109C-0.136057 21.6959 -0.167893 23.2885 0.782205 24.3123L2.03094 25.6653L2.03123 25.6655L7.93631 32.0625C9.09148 33.3066 10.6842 34.0539 12.3793 34.1475ZM2.00691 23.1819C1.75554 22.9096 1.68914 22.5145 1.83758 22.175C1.98601 21.8356 2.32127 21.616 2.69178 21.6158L2.71131 21.6161C2.96521 21.6201 3.20633 21.7286 3.37781 21.916L3.98777 22.5769L2.66756 23.8975L2.00691 23.1819ZM5.11931 23.8024L10.6178 29.759C11.2995 30.4955 11.7362 31.4252 11.8678 32.4201C10.8284 32.2297 9.87869 31.7076 9.16101 30.9321L3.79871 25.123L5.11931 23.8024Z" fill="#77828C"/>
</svg>
