<?xml version="1.0" standalone="no"?>
<!DOCTYPE svg PUBLIC "-//W3C//DTD SVG 20010904//EN"
 "http://www.w3.org/TR/2001/REC-SVG-20010904/DTD/svg10.dtd">
<svg version="1.0" xmlns="http://www.w3.org/2000/svg"
 width="1184.000000pt" height="1184.000000pt" viewBox="0 0 1184.000000 1184.000000"
 preserveAspectRatio="xMidYMid meet">
<metadata>
Created by potrace 1.11, written by Peter Selinger 2001-2013
</metadata>
<g transform="translate(0.000000,1184.000000) scale(0.100000,-0.100000)"
fill="#000000" stroke="none">
<path d="M6131 11593 c0 -109 -3 -225 -5 -258 -3 -33 -7 -90 -10 -126 -8 -106
-36 -320 -57 -429 -6 -30 -12 -68 -15 -85 -6 -38 -12 -70 -14 -70 -1 0 -3 -11
-6 -25 -4 -22 -25 -123 -30 -142 -1 -5 -2 -9 -4 -10 -1 -2 -3 -11 -5 -22 -9
-46 -28 -122 -34 -131 -3 -5 -6 -14 -7 -20 -4 -27 -49 -176 -65 -217 -10 -27
-16 -48 -14 -48 3 0 -2 -14 -11 -31 -8 -17 -17 -38 -19 -47 -5 -23 -74 -190
-93 -227 -9 -16 -17 -36 -18 -43 -1 -8 -9 -21 -18 -30 -8 -10 -15 -21 -16 -27
-2 -14 -57 -111 -101 -175 -52 -77 -144 -168 -198 -194 -95 -45 -172 -28 -255
55 -26 27 -45 49 -41 49 5 0 1 8 -7 18 -37 41 -127 256 -142 334 -2 15 -7 32
-11 38 -4 6 -8 20 -11 33 -2 12 -6 31 -8 42 -46 198 -43 185 -56 265 -5 36
-12 76 -15 90 -5 23 -15 99 -20 142 -4 42 -13 21 -30 -70 -39 -213 -139 -533
-218 -701 -11 -25 -22 -48 -22 -51 -4 -15 -41 -86 -48 -91 -5 -3 -8 -10 -8
-15 2 -22 -196 -344 -248 -403 -11 -13 -21 -27 -21 -31 0 -3 -8 -15 -17 -26
-10 -10 -31 -37 -48 -59 -16 -22 -35 -46 -42 -53 -7 -8 -26 -30 -41 -50 -15
-20 -34 -44 -42 -53 -8 -10 -26 -31 -40 -48 -14 -18 -36 -45 -50 -60 -14 -16
-36 -44 -50 -61 -14 -18 -30 -37 -35 -44 -6 -6 -28 -33 -50 -61 -22 -27 -42
-52 -45 -55 -53 -53 -268 -368 -330 -485 -24 -44 -48 -83 -53 -86 -5 -3 -8 -9
-8 -13 0 -3 -10 -30 -24 -60 -14 -30 -25 -58 -25 -61 0 -4 -9 -20 -21 -36 -11
-16 -17 -29 -13 -29 3 0 0 -7 -7 -17 -8 -9 -13 -19 -13 -22 1 -3 -3 -17 -9
-31 -5 -14 -11 -29 -13 -35 -2 -5 -22 -64 -45 -130 -23 -66 -53 -160 -66 -210
-13 -49 -25 -94 -27 -100 -1 -5 -6 -28 -11 -50 -4 -22 -9 -49 -12 -60 -17 -85
-22 -116 -28 -155 -3 -25 -8 -52 -10 -60 -2 -8 -7 -49 -10 -90 -4 -41 -9 -88
-11 -105 -5 -38 -5 -236 0 -335 6 -104 21 -221 41 -325 3 -14 7 -35 9 -47 3
-13 11 -48 20 -78 8 -30 18 -66 21 -80 4 -14 9 -32 12 -40 2 -8 4 -16 4 -17 0
-8 71 -198 92 -245 14 -32 23 -58 19 -58 -4 0 -2 -4 3 -8 6 -4 23 -34 38 -67
41 -86 159 -299 169 -303 4 -2 8 -8 8 -13 0 -12 131 -205 207 -306 32 -42 63
-83 68 -91 6 -8 17 -23 25 -31 8 -9 26 -31 40 -49 34 -45 54 -69 101 -120 21
-24 39 -47 39 -53 0 -5 4 -9 9 -9 5 0 7 12 5 28 -24 124 -31 216 -28 357 4
191 5 203 39 355 9 41 18 82 20 90 1 8 7 27 13 43 7 15 14 38 16 51 2 14 9 33
15 44 6 11 7 22 4 26 -3 3 -1 6 5 6 7 0 12 7 12 15 0 15 12 45 71 173 16 34
28 65 28 68 0 4 3 10 8 13 4 3 21 33 38 66 16 33 70 128 120 210 50 83 97 161
105 175 8 14 18 27 21 30 3 3 14 21 25 40 10 19 22 37 25 40 4 3 15 19 25 36
16 27 43 71 97 159 7 11 24 39 40 62 15 23 27 45 27 49 0 4 6 15 14 23 27 32
199 365 221 431 1 3 5 14 10 25 31 77 67 176 80 225 1 3 7 25 14 50 7 25 15
54 17 65 14 61 27 133 29 155 2 14 4 25 5 25 1 0 3 23 6 50 8 106 12 137 18
142 3 4 6 2 6 -4 0 -6 44 -70 98 -142 53 -72 111 -149 127 -172 17 -23 45 -62
63 -86 17 -24 32 -47 32 -52 0 -5 4 -11 9 -13 12 -5 195 -282 285 -432 127
-212 307 -600 330 -712 3 -10 14 -48 25 -83 12 -35 19 -67 16 -71 -3 -5 -1
-11 5 -15 6 -4 8 -10 5 -15 -3 -5 -1 -11 5 -15 6 -4 8 -10 5 -15 -3 -5 -2 -18
3 -27 5 -10 12 -43 16 -73 3 -30 8 -67 11 -82 3 -15 7 -62 10 -105 2 -43 5
-80 5 -83 5 -16 4 -89 -2 -112 -4 -17 -2 -28 3 -28 6 0 7 -5 3 -11 -4 -7 -8
-30 -10 -53 -5 -77 -14 -156 -23 -196 -5 -22 -7 -40 -4 -40 3 0 1 -6 -4 -12
-5 -7 -10 -29 -11 -48 -3 -39 -5 -41 58 40 14 18 32 39 41 48 49 51 209 325
209 357 0 8 4 15 10 17 5 2 11 12 13 23 2 11 10 36 19 55 28 65 88 265 104
345 2 11 6 31 9 45 6 26 10 49 21 110 3 19 8 44 10 55 1 11 5 40 8 65 15 124
20 179 20 222 1 27 3 48 7 48 13 0 0 626 -16 758 -7 52 -17 158 -19 192 -1 14
-4 30 -7 35 -3 6 -7 30 -8 55 -2 25 -5 49 -8 53 -3 4 -7 28 -9 51 -2 24 -6 56
-9 70 -3 14 -7 37 -10 51 -3 14 -7 36 -10 50 -3 14 -7 37 -10 53 -3 15 -8 38
-11 52 -3 14 -8 36 -10 50 -3 14 -10 43 -16 65 -5 22 -12 49 -13 60 -2 11 -8
35 -13 53 -6 17 -8 32 -4 32 3 0 1 5 -6 12 -7 7 -12 21 -12 33 0 11 -7 39 -15
63 -9 24 -17 53 -19 65 -3 12 -5 22 -6 22 -1 0 -3 7 -5 15 -1 8 -25 81 -53
163 -27 81 -48 147 -46 147 13 0 84 -36 84 -42 0 -5 4 -8 10 -8 10 0 106 -56
127 -75 6 -5 45 -37 85 -69 40 -33 104 -95 142 -138 68 -77 191 -248 179 -248
-3 0 1 -8 9 -17 8 -10 32 -52 53 -93 20 -41 43 -86 50 -100 7 -14 13 -27 13
-30 1 -3 6 -18 12 -35 18 -46 71 -198 75 -215 2 -8 13 -46 25 -85 12 -38 23
-79 25 -90 7 -39 16 -81 25 -115 11 -41 15 -65 36 -180 23 -132 26 -144 29
-160 2 -8 7 -44 11 -80 8 -68 10 -78 14 -82 1 -2 3 -19 4 -38 2 -19 7 -64 11
-100 5 -36 9 -75 9 -87 0 -13 2 -23 6 -23 3 0 6 -15 6 -32 1 -18 4 -55 7 -83
8 -64 13 -116 22 -196 4 -35 8 -71 10 -79 1 -8 6 -42 9 -75 4 -33 14 -107 22
-165 8 -58 17 -118 19 -134 3 -16 12 -70 21 -120 9 -50 17 -100 19 -111 1 -11
5 -27 8 -35 4 -8 9 -28 12 -45 2 -16 9 -50 15 -75 6 -25 13 -54 15 -65 2 -11
4 -20 4 -20 1 0 19 -49 40 -110 53 -151 64 -179 76 -187 6 -4 7 -8 3 -8 -12 0
83 -155 127 -209 33 -41 113 -121 119 -121 4 0 19 -11 34 -25 32 -30 176 -105
203 -105 16 0 17 4 7 33 -18 50 -15 282 4 293 5 3 6 9 3 14 -5 9 57 196 81
242 8 15 14 29 13 30 -2 3 65 144 194 408 79 163 119 248 121 260 1 3 8 21 17
40 19 39 89 217 89 224 0 3 5 17 12 33 6 15 13 37 15 47 2 11 11 40 19 65 9
25 17 53 19 61 2 8 4 15 5 15 1 0 4 11 6 25 3 14 9 41 14 60 16 60 46 218 55
285 24 191 25 584 1 710 -2 11 -7 47 -11 80 -9 74 -12 89 -24 140 -5 22 -12
54 -15 70 -9 52 -54 213 -66 234 -6 12 -9 21 -6 21 6 0 -60 193 -75 221 -5 10
-10 29 -11 43 -1 15 -5 26 -9 26 -4 0 -9 10 -13 23 -3 13 -13 41 -23 63 -9 21
-16 42 -15 47 1 4 -3 7 -10 7 -6 0 -9 2 -6 6 17 16 -369 813 -406 836 -6 4 -7
8 -3 8 7 0 -39 90 -52 100 -3 3 -15 23 -27 45 -43 84 -69 130 -76 133 -5 2 -8
10 -8 18 0 8 -5 14 -12 14 -6 0 -9 3 -5 6 3 4 -5 21 -18 39 -14 17 -25 35 -25
39 0 4 -13 27 -30 51 -16 24 -30 48 -30 54 0 6 -4 11 -10 11 -5 0 -10 4 -10 9
0 12 -102 175 -112 179 -5 2 -8 8 -8 12 0 12 -221 344 -231 348 -5 2 -9 8 -9
12 0 5 -37 61 -82 125 -46 64 -101 142 -123 173 -32 45 -123 168 -168 227 -4
5 -21 28 -37 50 -40 52 -82 105 -97 121 -7 7 -13 15 -13 18 0 3 -9 16 -19 28
-39 46 -56 67 -76 94 -11 16 -33 44 -50 63 -16 20 -33 40 -38 46 -7 10 -66 79
-100 119 -10 12 -31 36 -45 55 -15 19 -40 49 -57 66 -16 18 -49 55 -71 81 -46
54 -49 58 -184 203 -52 57 -109 118 -127 137 l-31 34 -1 -197z"/>
<path d="M2167 3874 c-1 -1 -37 -5 -79 -8 -42 -4 -87 -9 -100 -12 -13 -3 -34
-7 -48 -9 -14 -2 -45 -9 -70 -15 -25 -6 -54 -13 -64 -15 -56 -13 -160 -53
-231 -88 -106 -54 -153 -86 -225 -157 -71 -69 -134 -161 -144 -212 -3 -13 -9
-36 -14 -53 -15 -51 -5 -172 18 -215 7 -14 13 -26 13 -27 -3 -8 10 -43 16 -43
3 0 12 -14 20 -30 33 -75 174 -193 320 -267 62 -31 243 -98 292 -106 13 -3 41
-12 62 -20 20 -9 37 -14 37 -12 0 3 12 0 28 -6 15 -6 34 -12 42 -14 8 -2 38
-11 65 -20 28 -10 55 -18 60 -19 6 -1 37 -11 70 -21 33 -10 62 -19 65 -20 3
-1 31 -9 64 -19 32 -10 64 -19 70 -21 6 -1 18 -5 26 -8 14 -6 128 -40 140 -42
10 -2 156 -46 170 -52 19 -8 40 -13 63 -15 9 -1 17 -6 17 -10 0 -4 8 -8 18 -8
11 0 45 -9 78 -20 32 -11 59 -20 59 -19 0 1 47 -13 105 -31 58 -17 141 -43
185 -57 44 -13 100 -31 125 -39 25 -8 53 -16 63 -19 27 -6 190 -55 207 -62 8
-3 20 -7 25 -8 22 -6 217 -65 430 -130 66 -21 125 -38 130 -39 6 -2 30 -9 55
-16 25 -8 47 -14 50 -15 3 -1 28 -8 55 -17 95 -30 390 -120 475 -144 47 -14
92 -27 100 -30 8 -3 15 -5 15 -4 0 1 14 -4 30 -10 26 -11 123 -41 180 -57 11
-3 28 -6 38 -6 9 -1 17 -5 17 -9 0 -4 11 -8 25 -8 14 0 25 -4 25 -8 0 -4 9 -8
20 -9 11 -1 78 -20 148 -41 70 -22 174 -54 232 -72 264 -79 337 -102 360 -110
20 -7 76 -24 123 -36 4 -1 9 -3 12 -4 3 -1 8 -3 13 -4 4 -1 34 -10 67 -21 56
-17 66 -20 98 -28 43 -12 105 -30 122 -37 21 -9 88 -30 108 -34 7 -2 19 -6 27
-9 14 -6 154 -47 175 -52 6 -1 17 -5 25 -8 18 -6 209 -64 260 -79 19 -5 42
-12 50 -15 8 -3 20 -7 25 -9 15 -4 103 -30 160 -47 28 -8 102 -31 165 -51 63
-20 125 -39 137 -41 12 -3 35 -10 50 -16 16 -6 28 -10 28 -9 0 1 7 -1 15 -4 8
-2 56 -16 105 -31 50 -14 101 -30 115 -35 14 -5 70 -22 125 -39 55 -16 134
-40 175 -53 41 -12 77 -23 80 -23 22 -5 129 -38 145 -45 11 -5 70 -23 130 -40
61 -17 121 -35 135 -40 14 -4 45 -13 70 -21 25 -7 50 -15 55 -18 6 -3 15 -6
20 -7 6 -1 57 -16 114 -34 57 -17 112 -33 122 -35 11 -2 23 -6 27 -9 8 -5 62
-17 92 -20 9 -1 20 -4 25 -7 6 -3 20 -4 33 -3 12 0 22 -1 22 -5 0 -19 395 -17
530 3 14 2 25 5 25 6 0 1 9 3 20 5 159 23 413 127 510 209 17 14 43 36 58 48
62 51 143 172 162 243 15 54 15 60 16 117 0 69 -27 174 -51 198 -3 3 -12 19
-20 35 -15 30 -161 185 -174 185 -4 0 -26 13 -49 29 -75 51 -238 124 -307 137
-13 3 -29 9 -36 15 -6 5 -13 6 -16 3 -4 -3 -20 2 -37 10 -17 9 -33 16 -36 15
-14 -2 -72 15 -84 25 -8 6 -17 10 -20 9 -8 -3 -79 15 -116 30 -16 6 -34 13
-40 14 -5 1 -22 4 -36 7 -15 3 -42 12 -60 20 -19 8 -36 14 -39 14 -7 -1 -25 4
-150 43 -58 18 -109 34 -115 35 -5 2 -39 12 -75 23 -36 10 -103 31 -150 45
-47 14 -92 29 -100 32 -8 4 -22 8 -30 9 -8 1 -69 19 -135 40 -66 20 -140 43
-165 50 -25 7 -83 25 -130 39 -47 15 -128 40 -180 55 -52 16 -133 41 -180 56
-47 15 -92 28 -100 29 -13 2 -199 59 -280 86 -14 4 -45 13 -70 20 -25 7 -52
15 -60 18 -8 3 -17 6 -20 6 -3 1 -11 5 -17 9 -7 5 -13 6 -13 3 0 -3 -19 2 -42
10 -24 9 -52 17 -62 20 -19 3 -130 38 -226 69 -25 9 -55 17 -68 20 -12 2 -27
7 -32 10 -5 3 -18 8 -27 10 -44 8 -139 38 -150 47 -7 6 -13 8 -13 5 0 -3 -12
-2 -27 3 -126 38 -241 72 -253 75 -8 2 -31 9 -50 16 -62 21 -74 25 -102 32 -7
2 -53 16 -102 31 -49 16 -94 29 -100 31 -6 1 -18 5 -26 8 -24 10 -95 27 -101
24 -3 -1 -13 4 -22 12 -10 7 -17 10 -17 7 0 -4 -9 -2 -21 4 -11 6 -29 13 -41
15 -20 4 -138 39 -188 55 -14 5 -72 23 -130 40 -58 17 -116 35 -130 39 -14 5
-45 15 -70 22 -25 7 -51 17 -59 23 -8 6 -17 10 -20 8 -7 -4 -86 16 -116 28
-16 7 -106 35 -147 46 -5 1 -10 3 -13 4 -3 1 -8 3 -12 4 -5 1 -12 4 -18 7 -5
4 -18 5 -27 4 -10 -2 -18 1 -18 6 0 5 -3 8 -7 7 -8 -2 -80 19 -168 48 -51 16
-187 57 -200 60 -5 1 -33 9 -61 19 -28 9 -60 18 -70 20 -10 2 -19 4 -19 5 0 1
-7 3 -15 5 -8 2 -73 22 -145 45 -71 22 -141 43 -154 46 -14 3 -29 8 -35 12 -6
3 -20 8 -31 9 -11 2 -27 6 -35 10 -21 8 -38 14 -150 44 -25 7 -47 15 -50 18
-3 3 -14 7 -25 9 -11 2 -31 7 -45 12 -14 5 -59 18 -100 30 -41 12 -82 25 -90
28 -8 3 -19 7 -25 8 -5 1 -13 3 -17 4 -5 1 -11 3 -15 4 -5 1 -35 10 -68 21
-33 10 -62 19 -65 20 -3 0 -14 4 -25 7 -132 42 -232 72 -240 74 -5 2 -41 12
-80 24 -38 12 -77 23 -85 25 -8 2 -16 4 -17 5 -2 2 -6 3 -10 4 -13 3 -124 37
-202 62 -40 13 -78 21 -82 18 -5 -3 -9 -1 -9 4 0 7 -49 24 -63 21 -1 0 -15 5
-32 11 -34 13 -123 33 -200 45 -92 14 -338 27 -348 19z"/>
<path d="M9475 3869 c-86 -7 -136 -14 -285 -44 -14 -3 -36 -9 -50 -14 -14 -5
-52 -17 -85 -26 -33 -9 -100 -30 -150 -45 -99 -32 -231 -71 -255 -75 -8 -2
-16 -4 -17 -5 -2 -2 -6 -3 -10 -5 -5 -1 -15 -5 -23 -8 -8 -3 -42 -14 -75 -23
-33 -9 -94 -27 -135 -41 -73 -24 -88 -28 -130 -37 -11 -3 -25 -8 -30 -11 -5
-3 -18 -8 -27 -10 -10 -1 -52 -13 -93 -26 -41 -13 -78 -24 -82 -25 -5 -1 -10
-3 -13 -4 -3 -1 -8 -3 -12 -4 -17 -4 -190 -57 -218 -67 -16 -6 -40 -12 -51
-14 -12 -2 -30 -8 -41 -13 -11 -6 -30 -13 -44 -15 -13 -2 -31 -6 -39 -10 -18
-6 -220 -68 -235 -72 -5 -1 -17 -5 -25 -8 -12 -5 -114 -35 -142 -43 -5 -1 -9
-2 -10 -4 -2 -1 -10 -3 -19 -5 -10 -1 -70 -19 -135 -40 -66 -20 -141 -43 -169
-51 -27 -9 -57 -18 -65 -21 -8 -3 -23 -8 -34 -10 -45 -8 -45 -19 2 -32 26 -7
54 -15 62 -18 8 -3 20 -7 25 -8 6 -2 80 -24 165 -50 85 -26 223 -67 305 -91
83 -25 157 -48 165 -51 18 -8 16 -7 70 -22 25 -7 70 -21 101 -32 30 -10 63
-19 72 -19 10 0 25 -4 35 -10 9 -5 51 -19 92 -31 41 -12 100 -29 130 -39 94
-30 195 -60 200 -59 3 0 19 -5 35 -11 17 -7 37 -13 45 -15 8 -2 44 -13 80 -24
36 -10 121 -36 190 -56 69 -20 134 -41 145 -46 11 -5 29 -11 40 -14 11 -2 94
-27 185 -55 203 -63 201 -62 225 -51 11 5 54 19 95 31 41 12 95 29 120 37 25
8 56 17 69 19 14 3 29 8 34 11 5 3 23 9 41 13 17 5 92 27 166 50 133 41 226
69 245 73 6 2 15 5 20 8 8 5 52 18 75 23 38 8 108 31 118 39 6 5 12 6 12 2 0
-4 11 0 25 9 14 9 25 14 25 12 0 -10 176 83 225 118 149 107 244 251 253 386
5 75 -14 190 -31 190 -6 0 -8 3 -5 6 14 13 -58 118 -123 183 -120 117 -359
235 -539 267 -8 1 -26 5 -40 8 -129 26 -300 36 -455 25z"/>
<path d="M2725 1862 c-11 -2 -67 -19 -125 -37 -192 -60 -276 -86 -291 -89 -8
-2 -21 -6 -29 -9 -22 -9 -105 -30 -105 -26 0 1 -10 -3 -23 -10 -13 -7 -31 -14
-40 -16 -55 -11 -338 -101 -344 -110 -4 -5 -8 -7 -8 -3 0 15 -201 -66 -208
-84 -2 -5 -7 -6 -12 -3 -4 3 -13 -2 -20 -10 -7 -8 -16 -15 -21 -15 -18 0 -116
-76 -171 -133 -57 -59 -126 -176 -134 -225 -13 -84 -11 -154 9 -227 23 -85
146 -235 248 -303 126 -85 336 -167 479 -187 14 -2 36 -7 50 -10 99 -23 471
-24 541 -1 7 3 32 7 54 10 22 3 61 12 88 20 26 8 50 15 52 15 3 1 6 1 8 2 1 0
9 2 17 4 8 2 53 15 100 30 47 15 90 28 95 29 6 1 30 9 55 16 25 8 48 14 53 16
4 1 9 3 12 4 3 1 8 3 13 4 4 1 23 7 42 13 52 17 179 54 193 57 7 2 19 6 27 9
19 7 185 58 202 61 7 2 20 6 28 9 13 5 186 59 200 62 3 0 14 4 25 7 192 60
231 72 235 73 3 1 22 5 43 9 20 5 37 12 37 16 0 5 8 7 18 5 9 -1 22 1 27 5 10
6 80 28 114 35 9 2 36 10 61 18 25 8 86 27 135 42 50 15 97 29 105 33 8 3 19
4 24 3 4 -1 13 2 20 7 6 6 27 13 46 18 19 4 37 8 40 9 36 9 159 48 170 54 9 5
31 12 50 16 19 4 69 18 110 32 41 14 81 26 88 26 18 1 15 17 -3 17 -14 0 -123
31 -165 47 -8 3 -19 7 -25 9 -5 1 -48 14 -95 29 -47 14 -92 28 -100 30 -8 2
-53 16 -100 30 -153 47 -285 87 -300 90 -8 2 -16 4 -17 5 -2 2 -6 3 -10 5 -5
1 -15 4 -23 7 -8 3 -35 11 -60 18 -25 7 -54 16 -65 20 -11 5 -42 14 -70 21
-27 6 -54 15 -60 18 -5 3 -15 6 -22 7 -7 1 -70 20 -140 42 -166 51 -246 75
-258 78 -5 1 -48 14 -95 29 -47 15 -123 38 -170 52 -47 13 -89 26 -95 27 -5 2
-13 4 -18 5 -4 0 -22 7 -41 15 -19 8 -37 12 -40 8 -3 -3 -6 0 -6 7 0 7 -4 10
-9 6 -5 -3 -20 -1 -33 4 -13 6 -70 24 -128 41 -58 17 -122 38 -142 46 -21 7
-38 11 -38 9 0 -3 -8 -2 -17 3 -10 5 -27 7 -38 4z"/>
</g>
</svg>
