<svg width="50" height="50" viewBox="0 0 50 50" fill="none" xmlns="http://www.w3.org/2000/svg">
<g clip-path="url(#clip0)">
<path d="M46.8971 41.644H45.4914V14.7687C45.4914 14.3639 45.1637 14.0363 44.759 14.0363C44.3546 14.0363 44.0266 14.3639 44.0266 14.7687V41.644H40.9294V29.1329C40.9294 25.2938 39.5645 21.7679 37.2944 19.0144C37.2848 19.0022 37.2749 18.99 37.2642 18.9782C34.3403 15.4527 29.9278 13.2031 25 13.2031C20.0722 13.2031 15.6597 15.4527 12.7357 18.9782C12.7251 18.99 12.7151 19.0022 12.7056 19.0144C10.4355 21.7679 9.07059 25.2938 9.07059 29.1329V41.6436H5.97343V14.7687C5.97343 14.3639 5.64537 14.0363 5.24101 14.0363C4.83627 14.0363 4.50859 14.3639 4.50859 14.7687V41.644H3.10287C2.49557 41.644 2.00195 42.1376 2.00195 42.7445V45.4488C2.00195 46.0561 2.49596 46.5497 3.10287 46.5497H46.8971C47.504 46.5497 47.998 46.0557 47.998 45.4488V42.7445C47.998 42.1376 47.504 41.644 46.8971 41.644ZM39.4646 29.1329V30.444H37.8044V29.1329C37.8044 28.3315 37.7304 27.5471 37.5889 26.7861L39.1537 26.1422C39.3574 27.1073 39.4646 28.1079 39.4646 29.1329ZM37.8044 36.6772V31.9089H39.4646V36.7467L37.8044 36.6772ZM39.4646 38.2127V41.6436H37.8044V38.1432L39.4646 38.2127ZM36.6474 20.5647C37.5664 21.811 38.2908 23.2091 38.7745 24.714L37.2337 25.3484C36.8313 24.0502 36.2274 22.8394 35.4588 21.7534L36.6474 20.5647ZM31.8798 39.3124L30.0327 38.9241C30.278 38.7273 30.5115 38.5121 30.7323 38.279C32.5783 36.3354 32.9605 33.7842 32.9048 32.7065C32.7717 30.1347 31.4575 28.3143 30.6858 27.4583C30.4176 27.1603 30.0014 27.0615 29.6268 27.2069C29.253 27.3518 29.0131 27.7047 29.0157 28.1049C29.0245 29.3782 28.64 29.8837 28.3798 29.913C28.2291 29.929 28.0422 29.7955 27.9861 29.5422C27.8789 29.0551 28.046 28.6172 28.257 28.0637C28.6488 27.0364 29.1851 25.6295 27.9499 23.4093C27.1297 21.9353 25.6687 21.0969 24.8707 20.728C24.5277 20.5697 24.1367 20.6227 23.8487 20.8657C23.5615 21.1087 23.444 21.4852 23.5424 21.8488C23.6664 22.3046 23.8998 23.4593 23.3986 24.3363C23.0259 24.9883 22.3473 25.5959 21.6259 26.2128C21.3184 26.476 21.2822 26.9383 21.5454 27.2454C21.8082 27.5529 22.2706 27.5891 22.578 27.3263C23.4013 26.6221 24.1806 25.9194 24.67 25.0634C25.1457 24.2314 25.2174 23.3155 25.1518 22.5571C25.6969 22.9192 26.2871 23.4338 26.6697 24.1216C27.5734 25.7455 27.256 26.5778 26.8883 27.5418C26.638 28.1979 26.3542 28.9422 26.556 29.8569C26.7681 30.8221 27.6237 31.4721 28.5431 31.3687C29.2755 31.2863 30.0434 30.7198 30.3463 29.4255C30.8651 30.2399 31.3694 31.3775 31.4419 32.7824C31.4918 33.7437 31.0551 35.8125 29.6703 37.2708C29.4315 37.5222 29.1737 37.7473 28.8967 37.9464C29.1351 37.1396 29.1588 36.4434 29.1485 36.0715C29.1397 35.7602 28.9597 35.4829 28.6785 35.3482C28.3977 35.2132 28.0693 35.2464 27.8213 35.4337L27.8095 35.4428C27.4113 35.7434 26.3557 36.5422 24.8852 36.366C24.3259 36.2988 23.6557 35.386 23.4211 33.4981C23.3795 33.162 23.1411 32.8881 22.8142 32.8C22.4873 32.7122 22.1439 32.8297 21.9395 33.0991C20.9774 34.3663 20.2759 36.0356 20.4952 37.6416C19.096 36.4899 18.4486 35.0919 18.5688 33.4779C18.5696 33.4676 18.5699 33.4573 18.5703 33.4473C18.5719 33.4382 18.5726 33.4286 18.5734 33.4199L18.5787 33.3497C18.7214 31.9081 19.2409 30.7004 20.2137 29.5483C20.4746 29.2393 20.4357 28.7774 20.1267 28.5161C19.8174 28.2555 19.3554 28.2944 19.0945 28.6034C17.9375 29.9733 17.292 31.4786 17.1207 33.2066C17.1188 33.2272 17.1173 33.2478 17.1158 33.2681C17.1089 33.3169 17.1051 33.3634 17.1051 33.4077C16.9563 35.5756 17.8856 37.4852 19.7994 38.96L18.1202 39.3128C17.0704 39.5329 16.3086 40.3771 16.3086 41.644H13.6604V29.1329C13.6604 28.2239 13.768 27.3396 13.9706 26.4924C13.9774 26.4695 13.9828 26.447 13.9873 26.4241C14.3761 24.8441 15.0967 23.3933 16.0706 22.1505C16.0789 22.1402 16.0873 22.1299 16.095 22.1196C17.2607 20.6425 18.7855 19.4611 20.536 18.7085C20.541 18.7066 20.5456 18.7051 20.5502 18.7028C20.5593 18.699 20.5681 18.6951 20.5772 18.6909C21.9368 18.113 23.4318 17.793 25 17.793C26.5839 17.793 28.0933 18.1195 29.464 18.7089C29.4785 18.7157 29.4929 18.7222 29.5078 18.7283C29.5132 18.7306 29.5185 18.7325 29.5238 18.7344C31.2492 19.4882 32.7526 20.6593 33.9046 22.1192C33.9127 22.1299 33.9207 22.1402 33.9291 22.1501C34.9148 23.4082 35.6411 24.8788 36.0264 26.4809C36.0302 26.5 36.0348 26.5187 36.0401 26.5378C36.2358 27.3713 36.3396 28.2399 36.3396 29.1325V41.6436H33.6914C33.6914 40.2551 32.9296 39.5329 31.8798 39.3124ZM25.013 39.0714C24.033 39.0355 23.251 38.9851 22.5155 38.7681L22.5174 38.7669C21.92 38.0112 21.7655 37.1308 22.0455 36.0825C22.1184 35.809 22.2153 35.5485 22.3225 35.3078C22.3812 35.489 22.448 35.6728 22.5246 35.8544C23.1529 37.3376 24.0604 37.7419 24.7108 37.8201C25.8694 37.9594 26.836 37.6717 27.5436 37.3299C27.4258 37.8045 27.2125 38.3508 26.8318 38.8699C26.2699 39.0031 25.663 39.0706 25.013 39.0714ZM26.3855 41.644H23.6145L24.0524 40.49C24.0696 40.4465 25.9651 40.5358 25.9491 40.4942L26.3855 41.644ZM21.7277 40.051C22.0039 40.1513 22.2805 40.2295 22.5613 40.2913L22.0478 41.644H17.7734C17.7734 41.1462 18.0458 40.8246 18.4216 40.746L21.7277 40.051ZM28.1048 40.0159L31.5784 40.746C31.9542 40.8246 32.2266 41.1217 32.2266 41.6436H27.9522L27.4178 40.2356C27.6531 40.1723 27.882 40.099 28.1048 40.0159ZM31.3549 16.1401C33.0101 16.953 34.4883 18.0733 35.7147 19.4257L34.5398 20.6006C33.4682 19.4039 32.1754 18.409 30.7262 17.6812L31.3549 16.1401ZM25 14.668C26.7597 14.668 28.4473 14.9842 30.0087 15.5621L29.3812 17.1002C28.0136 16.6009 26.5381 16.3281 25 16.3281C23.481 16.3281 22.023 16.594 20.6699 17.0819L20.0325 15.5469C21.5824 14.9785 23.2555 14.668 25 14.668ZM18.6848 16.121L19.3226 17.6572C17.8535 18.3869 16.5436 19.3906 15.4602 20.601L14.2849 19.426C15.5212 18.0627 17.0135 16.9354 18.6848 16.121ZM13.3526 20.5647L14.5412 21.7534C13.7836 22.8238 13.1863 24.0147 12.7838 25.2919L11.2461 24.6507C11.7298 23.1698 12.4462 21.7934 13.3526 20.5647ZM10.5354 29.1329C10.5354 28.0846 10.6476 27.0623 10.8601 26.077L12.4218 26.7278C12.2734 27.5071 12.1956 28.3109 12.1956 29.1325V30.444H10.5354V29.1329ZM10.5354 31.9089H12.1956V36.612L10.5354 36.6727V31.9089ZM10.5354 38.1387L12.1956 38.078V41.644H10.5354V38.1387ZM46.5332 45.0848H3.4668V43.1088H46.5332V45.0848Z" fill="#77828C"/>
<path d="M48.6926 3.41797H1.30729C0.586318 3.41797 0 4.00429 0 4.72526V7.57026C0 8.29124 0.586318 8.87755 1.30729 8.87755H2.27432V9.24682C2.27432 10.8162 3.5511 12.0933 5.12084 12.0933H44.8795C46.4488 12.0933 47.7256 10.8162 47.7256 9.24682V8.87755H48.6926C49.4136 8.87755 49.9999 8.29085 49.9999 7.57026V4.72526C49.9999 4.00429 49.4136 3.41797 48.6926 3.41797ZM46.2608 9.24682C46.2608 10.0086 45.6409 10.6285 44.8791 10.6285H5.12084C4.35905 10.6285 3.73916 10.0086 3.73916 9.24682V8.87755H46.2608V9.24682ZM48.5351 7.41271H1.46484V4.88281H48.5351V7.41271Z" fill="#77828C"/>
</g>
<defs>
<clipPath id="clip0">
<rect width="50" height="50" fill="white"/>
</clipPath>
</defs>
</svg>
