<svg width="50" height="48" viewBox="0 0 50 48" fill="none" xmlns="http://www.w3.org/2000/svg">
<path d="M23.2908 19.1707H17.2076C16.5345 19.1707 15.9869 19.7182 15.9869 20.3914V23.1806C15.9869 23.8537 16.5345 24.4013 17.2076 24.4013H23.2908C23.964 24.4013 24.5115 23.8537 24.5115 23.1806V20.3914C24.5115 19.7182 23.964 19.1707 23.2908 19.1707ZM23.0467 22.9364H17.4518V20.6354H23.0467V22.9364Z" fill="#77828C"/>
<path d="M24.2675 29.5079C24.2675 30.1811 24.815 30.7286 25.4882 30.7286H31.5713C32.2444 30.7286 32.792 30.1811 32.792 29.5079V26.7188C32.792 26.0456 32.2444 25.498 31.5713 25.498H25.4882C24.815 25.498 24.2675 26.0456 24.2675 26.7188V29.5079ZM25.7323 26.9629H31.3271V29.2638H25.7323V26.9629Z" fill="#77828C"/>
<path d="M15.5729 32.2712V35.0604C15.5729 35.7335 16.1205 36.2811 16.7936 36.2811H22.8768C23.55 36.2811 24.0975 35.7335 24.0975 35.0604V32.2712C24.0975 31.5981 23.55 31.0505 22.8768 31.0505H16.7936C16.1205 31.0505 15.5729 31.5982 15.5729 32.2712ZM17.0378 32.5154H22.6327V34.8163H17.0378V32.5154Z" fill="#77828C"/>
<path d="M18.1261 7.11953C18.1261 7.52412 18.454 7.85195 18.8585 7.85195C19.263 7.85195 19.5909 7.52412 19.5909 7.11953C19.5909 6.95078 19.6356 6.89131 19.8642 6.66328C20.1442 6.38379 20.5675 5.96133 20.5675 5.17022C20.5675 4.379 20.1442 3.95654 19.8642 3.67695C19.6356 3.44893 19.5909 3.38955 19.5909 3.22061C19.5909 3.05166 19.6356 2.99219 19.8643 2.76406C20.1443 2.48457 20.5675 2.06221 20.5675 1.271C20.5675 0.866406 20.2395 0.538574 19.8351 0.538574C19.4306 0.538574 19.1026 0.866406 19.1026 1.271C19.1026 1.43984 19.0578 1.49932 18.8294 1.72734C18.5493 2.00693 18.1261 2.42939 18.1261 3.22061C18.1261 4.01182 18.5492 4.43418 18.8293 4.71367C19.0578 4.9418 19.1026 5.00117 19.1026 5.17022C19.1026 5.33906 19.0578 5.39844 18.8294 5.62647C18.5493 5.90606 18.1261 6.32842 18.1261 7.11953Z" fill="#77828C"/>
<path d="M23.7791 7.11953C23.7791 7.52412 24.107 7.85195 24.5115 7.85195C24.916 7.85195 25.2439 7.52412 25.2439 7.11953C25.2439 6.95078 25.2887 6.89131 25.5172 6.66328C25.7973 6.38379 26.2205 5.96133 26.2205 5.17022C26.2205 4.379 25.7973 3.95654 25.5172 3.67695C25.2887 3.44893 25.2439 3.38955 25.2439 3.22061C25.2439 3.05166 25.2887 2.99219 25.5173 2.76406C25.7974 2.48457 26.2205 2.06221 26.2205 1.271C26.2205 0.866406 25.8926 0.538574 25.4881 0.538574C25.0836 0.538574 24.7557 0.866406 24.7557 1.271C24.7557 1.43984 24.7108 1.49932 24.4824 1.72734C24.2024 2.00693 23.7791 2.42939 23.7791 3.22061C23.7791 4.01182 24.2023 4.43418 24.4823 4.71367C24.7108 4.9418 24.7557 5.00117 24.7557 5.17022C24.7557 5.33906 24.7108 5.39844 24.4824 5.62647C24.2024 5.90606 23.7791 6.32842 23.7791 7.11953Z" fill="#77828C"/>
<path d="M29.4323 7.11953C29.4323 7.52412 29.7602 7.85195 30.1647 7.85195C30.5692 7.85195 30.8972 7.52412 30.8972 7.11953C30.8972 6.95078 30.9419 6.89131 31.1704 6.66328C31.4505 6.38379 31.8737 5.96133 31.8737 5.17022C31.8737 4.379 31.4505 3.95654 31.1704 3.67695C30.9419 3.44893 30.8972 3.38955 30.8972 3.22061C30.8972 3.05166 30.9419 2.99219 31.1705 2.76406C31.4506 2.48457 31.8737 2.06221 31.8737 1.271C31.8737 0.866406 31.5458 0.538574 31.1413 0.538574C30.7368 0.538574 30.4089 0.866406 30.4089 1.271C30.4089 1.43984 30.3642 1.49932 30.1356 1.72734C29.8556 2.00693 29.4323 2.42939 29.4323 3.22061C29.4323 4.01182 29.8555 4.43418 30.1355 4.71367C30.3641 4.9418 30.4089 5.00117 30.4089 5.17022C30.4089 5.33906 30.3642 5.39844 30.1356 5.62647C29.8556 5.90606 29.4323 6.32842 29.4323 7.11953Z" fill="#77828C"/>
<path d="M49.9684 45.4206C49.3477 42.2331 46.5368 39.9197 43.2848 39.9197C43.099 39.9197 42.9105 39.9277 42.7214 39.9435C41.5635 38.6827 39.7555 37.7946 37.6388 37.44V17.1021H39.399C40.3467 17.1021 41.1178 16.331 41.1178 15.3832V11.3115C41.1178 10.3637 40.3467 9.59253 39.399 9.59253H29.1613C28.7568 9.59253 28.4289 9.92036 28.4289 10.325C28.4289 10.7295 28.7568 11.0574 29.1613 11.0574H39.3988C39.5388 11.0574 39.6528 11.1713 39.6528 11.3115V15.3832C39.6528 15.5233 39.5388 15.6373 39.3988 15.6373H10.601C10.461 15.6373 10.347 15.5233 10.347 15.3832V11.3115C10.347 11.1713 10.461 11.0574 10.601 11.0574H25.9693C26.3738 11.0574 26.7018 10.7295 26.7018 10.325C26.7018 9.92036 26.3738 9.59253 25.9693 9.59253H10.601C9.65325 9.59253 8.88216 10.3636 8.88216 11.3115V15.3832C8.88216 16.3309 9.65325 17.1021 10.601 17.1021H12.3612V22.9029C12.3612 23.3075 12.6891 23.6354 13.0936 23.6354C13.4981 23.6354 13.826 23.3075 13.826 22.9029V17.1021H36.1739V40.1264C35.1211 39.856 33.9117 39.7108 32.6537 39.7108C31.0918 39.7108 29.6234 39.9288 28.4068 40.3409C27.0933 40.7861 26.1985 41.4235 25.8194 42.1844C25.7848 42.2539 25.6963 42.3007 25.5993 42.3007H23.0799C22.9715 42.3007 22.8797 42.221 22.8515 42.1025C22.2575 39.6047 19.343 37.7916 15.9214 37.7916C15.2007 37.7916 14.4962 37.8724 13.826 38.0261V26.2306C13.826 25.826 13.4981 25.4982 13.0936 25.4982C12.6891 25.4982 12.3612 25.826 12.3612 26.2306V29.3275C9.77132 30.7997 8.16321 33.4931 8.1096 36.4862C7.0382 36.7295 6.01799 37.1384 5.06867 37.7056C4.7214 37.9131 4.60812 38.3629 4.81564 38.71C4.95275 38.9395 5.19582 39.0669 5.44503 39.0669C5.57287 39.0669 5.70236 39.0334 5.82004 38.9631C6.79397 38.3811 7.85471 37.9928 8.97317 37.8091C9.3428 37.7485 9.60706 37.4186 9.58568 37.0446C9.57718 36.8965 9.57308 36.7646 9.57308 36.641C9.57308 34.4115 10.6168 32.3708 12.3612 31.0724V38.5037C11.8858 38.7102 11.4408 38.9593 11.0359 39.2488C9.64701 40.2417 8.88216 41.5856 8.88216 43.033C8.88216 43.4375 9.21009 43.7654 9.61458 43.7654C10.0191 43.7654 10.347 43.4375 10.347 43.033C10.347 40.9506 12.8477 39.2563 15.9214 39.2563C18.628 39.2563 20.9946 40.6256 21.4263 42.4412C21.6117 43.2208 22.2916 43.7654 23.0799 43.7654H25.5993C26.2485 43.7654 26.8496 43.4013 27.1305 42.8377C27.3248 42.4477 27.9776 42.033 28.877 41.7283C29.9285 41.372 31.2698 41.1757 32.6536 41.1757C36.0047 41.1757 38.2281 42.2935 38.2281 43.0331C38.2281 43.4376 38.556 43.7655 38.9605 43.7655C39.365 43.7655 39.6929 43.4376 39.6929 43.0331C39.6929 42.0823 38.9657 41.2361 37.6386 40.6317V38.9275C39.4478 39.2783 40.9845 40.0894 41.8444 41.1706C42.0062 41.3741 42.2639 41.4765 42.5212 41.4398C42.7778 41.4032 43.0347 41.3846 43.2847 41.3846C45.8373 41.3846 48.0434 43.1998 48.5304 45.7007C48.5493 45.7979 48.5057 45.8688 48.478 45.9023C48.449 45.9375 48.3847 45.9965 48.279 45.9965H1.71895C1.6207 45.9965 1.55889 45.9437 1.53076 45.9123C1.50186 45.88 1.45498 45.8104 1.46641 45.7088C1.66611 43.9291 2.38555 42.2634 3.54688 40.8918C3.80821 40.583 3.76983 40.1209 3.46114 39.8595C3.15235 39.598 2.69024 39.6366 2.42891 39.9452C1.0792 41.5393 0.242963 43.4759 0.0107359 45.5454C-0.0440495 46.0334 0.112006 46.523 0.438765 46.8886C0.764157 47.2525 1.23076 47.4612 1.71895 47.4612H48.2791C48.7954 47.4612 49.28 47.2325 49.6085 46.8338C49.935 46.4379 50.0661 45.9226 49.9684 45.4206Z" fill="#77828C"/>
</svg>
