<svg width="42" height="40" viewBox="0 0 42 40" fill="none" xmlns="http://www.w3.org/2000/svg">
<g clip-path="url(#clip0)">
<path d="M32.4419 24.126L40.5922 32.0336C42.4685 33.8555 42.47 36.8106 40.5922 38.6332C38.7132 40.4556 35.6685 40.4549 33.7896 38.6332L25.6455 30.7305C27.0346 29.9529 28.328 28.9936 29.4924 27.8635C30.6687 26.7223 31.6509 25.4633 32.4419 24.126Z" fill="white"/>
<path d="M5.36971 4.45591C8.33095 1.58274 12.2691 0.000488281 16.4571 0.000488281C20.6454 0.000488281 24.5819 1.58355 27.5438 4.45729C33.6579 10.3898 33.6579 20.0418 27.5438 25.9737C24.5819 28.8482 20.6455 30.431 16.4571 30.431C12.2691 30.431 8.33212 28.8481 5.3708 25.9744C2.4078 23.1014 0.776222 19.2809 0.776222 15.2165C0.776304 11.152 2.4078 7.33078 5.36971 4.45591ZM8.292 23.1393C10.4736 25.256 13.3731 26.4221 16.4572 26.4221C19.5412 26.4221 22.4412 25.256 24.6224 23.1393C29.1254 18.7701 29.1254 11.6608 24.6224 7.29169C22.4411 5.17562 19.5412 4.00968 16.4572 4.00968C13.372 4.00968 10.4724 5.17505 8.29092 7.29113C6.10918 9.40849 4.90832 12.2228 4.90832 15.2166C4.90824 18.2094 6.1091 21.0232 8.292 23.1393Z" fill="white"/>
<path d="M11.1488 13.2113L14.3914 13.2115V10.0675C14.3914 8.96015 15.3163 8.06299 16.4569 8.06299C17.5974 8.06299 18.5229 8.96015 18.5229 10.0675V13.2118L21.763 13.212C22.9035 13.212 23.8289 14.1097 23.8289 15.2165C23.8289 16.3237 22.9035 17.221 21.763 17.221L18.5229 17.2208V20.3648C18.5229 21.4722 17.5974 22.3694 16.4569 22.3694C15.3163 22.3694 14.3914 21.4722 14.3914 20.3648V17.2205L11.1488 17.2204C10.0082 17.2204 9.08264 16.3224 9.08264 15.2157C9.08272 14.1084 10.0082 13.2113 11.1488 13.2113Z" fill="white"/>
</g>
<defs>
<clipPath id="clip0">
<rect width="41.2238" height="40" fill="white" transform="matrix(-1 0 0 1 42 0)"/>
</clipPath>
</defs>
</svg>
